<svg width="360" height="800" viewBox="0 0 360 800" fill="none" xmlns="http://www.w3.org/2000/svg">
<g clip-path="url(#clip0_1_2)">
<rect width="360" height="800" fill="white"/>
<g filter="url(#filter0_f_1_2)">
<path fill-rule="evenodd" clip-rule="evenodd" d="M99.8001 166.353C138.864 172.444 139.487 230.197 165.389 258.606C180.334 274.998 203.912 281.395 219.296 297.418C235.279 314.066 243.219 335.382 256.82 353.838C277.673 382.134 328.604 401.993 321.287 435.817C314.061 469.219 246.007 455.441 228.408 485.169C205.661 523.595 245.535 581.797 215.142 615.124C189.534 643.204 138.132 633.674 99.8001 626.192C63.66 619.138 37.4419 591.263 5.24843 574.157C-25.0287 558.07 -74.2183 559.097 -85.2397 527.874C-98.0171 491.676 -37.2887 456.585 -49.1311 420.102C-62.4644 379.026 -139.381 376.322 -148.123 334.149C-155.326 299.402 -116.74 266.443 -84.7704 248.173C-53.4173 230.256 -10.2208 251.093 22.9389 236.393C55.5297 221.946 64.3044 160.818 99.8001 166.353Z" fill="#FFEDED"/>
</g>
<g filter="url(#filter1_f_1_2)">
<path fill-rule="evenodd" clip-rule="evenodd" d="M292.541 78.3027C324.97 83.5219 325.487 133.006 346.989 157.348C359.396 171.394 378.97 176.875 391.74 190.604C405.009 204.869 411.6 223.132 422.891 238.946C440.202 263.192 482.483 280.208 476.408 309.189C470.409 337.809 413.914 326.004 399.305 351.476C380.421 384.401 413.523 434.27 388.292 462.826C367.033 486.887 324.362 478.72 292.541 472.31C262.539 466.266 240.774 442.381 214.049 427.724C188.915 413.94 148.08 414.82 138.931 388.067C128.323 357.052 178.737 326.984 168.906 295.725C157.837 260.529 93.9854 258.212 86.7282 222.077C80.7487 192.303 112.78 164.063 139.32 148.409C165.348 133.057 201.207 150.911 228.735 138.316C255.79 125.937 263.074 73.5602 292.541 78.3027Z" fill="#FFEDED"/>
</g>
<g filter="url(#filter2_f_1_2)">
<path fill-rule="evenodd" clip-rule="evenodd" d="M334.8 339.353C373.864 345.444 374.487 403.197 400.389 431.606C415.334 447.998 438.912 454.395 454.296 470.418C470.279 487.066 478.219 508.382 491.82 526.838C512.673 555.134 563.604 574.993 556.287 608.817C549.061 642.219 481.007 628.441 463.408 658.169C440.661 696.595 480.535 754.797 450.142 788.124C424.534 816.204 373.132 806.674 334.8 799.192C298.66 792.138 272.442 764.263 240.248 747.157C209.971 731.07 160.782 732.097 149.76 700.874C136.983 664.676 197.711 629.585 185.869 593.102C172.536 552.026 95.6192 549.322 86.8772 507.149C79.6743 472.402 118.26 439.443 150.23 421.173C181.583 403.256 224.779 424.093 257.939 409.393C290.53 394.946 299.304 333.818 334.8 339.353Z" fill="#FFEDED"/>
</g>
<g filter="url(#filter3_f_1_2)">
<path fill-rule="evenodd" clip-rule="evenodd" d="M336.064 -23.0812C352.481 -17.6456 359.69 2.27966 375.565 9.13527C394.603 17.357 427.706 0.889839 435.763 19.9736C444.397 40.4238 405.036 55.2589 404.404 77.4427C403.803 98.5627 437.215 112.448 432.543 133.055C428.37 151.457 399.157 149.663 385.155 162.334C366.039 179.633 360.927 213.487 336.064 220.364C312.368 226.918 284.788 212.853 268.281 194.659C252.249 176.989 251.268 150.361 250.921 126.521C250.667 109.057 267.566 94.881 266.573 77.4427C265.482 58.2771 243.005 44.1108 245.143 25.0334C247.344 5.39818 260.371 -13.9622 277.856 -23.2152C295.297 -32.4446 317.329 -29.2844 336.064 -23.0812Z" fill="#464EA2"/>
</g>
<g filter="url(#filter4_f_1_2)">
<path fill-rule="evenodd" clip-rule="evenodd" d="M135.26 479.384C210.031 486.046 212.835 577.925 262.721 624.38C306.449 665.101 401.55 675.212 403.949 729.592C406.346 783.911 323.294 808.309 272.357 842.758C229.393 871.814 189.811 902.678 135.26 911.303C66.2166 922.22 -13.0977 933.827 -66.8027 896.383C-122.495 857.554 -134.154 789.329 -125.366 729.592C-117.493 676.069 -65.6297 639.802 -23.0453 598.92C25.4254 552.387 61.3434 472.799 135.26 479.384Z" fill="#A5A0EA"/>
</g>
<g filter="url(#filter5_f_1_2)">
<path fill-rule="evenodd" clip-rule="evenodd" d="M47.3421 -220.616C106.232 -213.954 108.439 -122.075 147.729 -75.6198C182.17 -34.8992 257.07 -24.7877 258.96 29.5918C260.848 83.9114 195.437 108.309 155.319 142.758C121.481 171.814 90.3058 202.678 47.3421 211.303C-7.03621 222.22 -69.5037 233.827 -111.801 196.383C-155.665 157.554 -164.847 89.3286 -157.926 29.5918C-151.725 -23.931 -110.878 -60.1985 -77.3383 -101.08C-39.1631 -147.613 -10.8743 -227.201 47.3421 -220.616Z" fill="#A5A0EA"/>
</g>
<g filter="url(#filter6_f_1_2)">
<path fill-rule="evenodd" clip-rule="evenodd" d="M265.342 130.384C324.232 137.046 326.439 228.925 365.729 275.38C400.17 316.101 475.07 326.212 476.96 380.592C478.848 434.911 413.437 459.309 373.319 493.758C339.481 522.814 308.306 553.678 265.342 562.303C210.964 573.22 148.496 584.827 106.199 547.383C62.3353 508.554 53.1533 440.329 60.0742 380.592C66.2751 327.069 107.122 290.802 140.662 249.92C178.837 203.387 207.126 123.799 265.342 130.384Z" fill="#A5A0EA"/>
</g>
<g clip-path="url(#clip1_1_2)">
<path d="M106.932 385.962C106.932 388.204 108.756 390.027 110.998 390.027C113.239 390.027 115.063 388.204 115.063 385.962C115.063 383.72 113.239 381.896 110.998 381.896C108.756 381.896 106.932 383.72 106.932 385.962ZM113.94 385.962C113.94 387.585 112.62 388.904 110.998 388.904C109.376 388.904 108.056 387.584 108.056 385.962C108.056 384.34 109.376 383.02 110.998 383.02C112.62 383.02 113.94 384.34 113.94 385.962Z" fill="black"/>
<path d="M110.998 380.313C111.308 380.313 111.559 380.062 111.559 379.751V377.593C111.559 377.283 111.308 377.032 110.998 377.032C110.688 377.032 110.436 377.283 110.436 377.593V379.751C110.436 380.061 110.688 380.313 110.998 380.313Z" fill="black"/>
<path d="M107.434 380.844C107.538 381.025 107.728 381.127 107.923 381.127C108.017 381.127 108.113 381.104 108.201 381.054C108.47 380.901 108.564 380.557 108.411 380.288L107.342 378.413C107.189 378.144 106.846 378.049 106.576 378.203C106.306 378.357 106.213 378.7 106.366 378.969L107.434 380.844Z" fill="black"/>
<path d="M103.511 382.181L105.367 383.28C105.457 383.334 105.556 383.359 105.653 383.359C105.845 383.359 106.032 383.261 106.137 383.084C106.295 382.816 106.207 382.472 105.94 382.314L104.083 381.215C103.816 381.056 103.472 381.144 103.314 381.412C103.155 381.678 103.244 382.023 103.511 382.181Z" fill="black"/>
<path d="M102.621 386.384L104.778 386.42C104.782 386.42 104.784 386.42 104.788 386.42C105.093 386.42 105.344 386.174 105.349 385.868C105.354 385.557 105.107 385.301 104.797 385.296L102.64 385.261C102.335 385.266 102.074 385.503 102.069 385.813C102.063 386.124 102.311 386.38 102.621 386.384Z" fill="black"/>
<path d="M105.281 388.455L103.389 389.492C103.117 389.642 103.017 389.983 103.167 390.254C103.269 390.441 103.461 390.546 103.66 390.546C103.751 390.546 103.843 390.525 103.929 390.477L105.821 389.44C106.093 389.291 106.193 388.95 106.044 388.678C105.894 388.405 105.553 388.305 105.281 388.455Z" fill="black"/>
<path d="M106.319 393.569C106.412 393.626 106.513 393.652 106.613 393.652C106.802 393.652 106.986 393.557 107.092 393.384L108.222 391.546C108.385 391.282 108.302 390.936 108.038 390.774C107.773 390.611 107.428 390.693 107.265 390.958L106.135 392.796C105.973 393.061 106.055 393.407 106.319 393.569Z" fill="black"/>
<path d="M110.229 392.151L110.157 394.308C110.147 394.618 110.39 394.878 110.7 394.887C110.706 394.888 110.712 394.888 110.719 394.888C111.021 394.888 111.27 394.648 111.28 394.345L111.352 392.188C111.363 391.878 111.12 391.618 110.81 391.609C110.503 391.587 110.24 391.841 110.229 392.151Z" fill="black"/>
<path d="M113.63 390.961C113.356 391.106 113.251 391.445 113.395 391.72L114.4 393.628C114.501 393.819 114.696 393.928 114.898 393.928C114.986 393.928 115.076 393.908 115.159 393.864C115.434 393.719 115.539 393.38 115.395 393.105L114.389 391.196C114.245 390.922 113.906 390.817 113.63 390.961Z" fill="black"/>
<path d="M116.536 388.83C116.274 388.663 115.928 388.74 115.76 389.001C115.593 389.263 115.67 389.61 115.932 389.777L117.75 390.937C117.844 390.997 117.949 391.026 118.052 391.026C118.237 391.026 118.419 390.934 118.526 390.766C118.693 390.504 118.616 390.157 118.355 389.99L116.536 388.83Z" fill="black"/>
<path d="M116.64 386.244C116.625 386.554 116.863 386.817 117.173 386.833L119.328 386.941C119.338 386.942 119.347 386.942 119.357 386.942C119.654 386.942 119.902 386.708 119.917 386.408C119.933 386.098 119.694 385.834 119.385 385.819L117.23 385.711C116.925 385.699 116.656 385.934 116.64 386.244Z" fill="black"/>
<path d="M116.039 383.413C116.138 383.609 116.336 383.721 116.542 383.721C116.626 383.721 116.713 383.702 116.794 383.661L118.72 382.688C118.997 382.548 119.107 382.21 118.968 381.933C118.827 381.656 118.49 381.545 118.213 381.685L116.287 382.659C116.01 382.799 115.9 383.136 116.039 383.413Z" fill="black"/>
<path d="M114.116 381.251C114.212 381.314 114.319 381.344 114.426 381.344C114.608 381.344 114.787 381.256 114.895 381.093L116.086 379.294C116.257 379.035 116.186 378.686 115.927 378.515C115.668 378.344 115.32 378.415 115.149 378.673L113.958 380.473C113.787 380.731 113.857 381.08 114.116 381.251Z" fill="black"/>
<path d="M125.75 414.42C128.144 413.573 130.61 412.827 133.104 412.211C133.405 412.136 133.589 411.832 133.515 411.531C133.441 411.23 133.134 411.046 132.835 411.121C130.04 411.811 127.275 412.657 124.61 413.631C123.195 412.676 121.766 411.796 120.335 410.984C124.432 409.439 128.711 408.225 133.077 407.378C133.381 407.32 133.58 407.024 133.521 406.72C133.462 406.415 133.169 406.215 132.863 406.275C128.12 407.195 123.472 408.539 119.048 410.27C117.417 409.389 115.789 408.596 114.182 407.882C121.695 404.775 128.544 403.38 133.046 402.759C133.354 402.717 133.568 402.433 133.526 402.126C133.483 401.819 133.2 401.6 132.893 401.647C128.125 402.304 120.764 403.812 112.75 407.264C110.878 406.479 109.043 405.798 107.276 405.209C120.613 398.99 132.867 398.401 132.993 398.395C133.303 398.382 133.543 398.12 133.53 397.81C133.518 397.5 133.261 397.261 132.946 397.273C132.894 397.275 130.776 397.377 127.372 397.925V396.618C127.482 396.624 127.604 396.628 127.739 396.628C128.562 396.628 129.781 396.472 130.587 395.665C131.877 394.375 131.505 392.034 131.488 391.936C131.449 391.698 131.263 391.513 131.026 391.474C130.957 391.463 129.777 391.277 128.634 391.617C128.921 391.138 129.136 390.58 129.136 389.971C129.136 388.148 127.218 386.755 127.137 386.697C126.941 386.558 126.679 386.558 126.483 386.697C126.401 386.756 124.484 388.148 124.484 389.971C124.484 390.578 124.698 391.135 124.984 391.613C123.845 391.277 122.672 391.461 122.603 391.474C122.366 391.513 122.18 391.698 122.141 391.936C122.125 392.035 121.753 394.375 123.043 395.665C123.85 396.472 125.067 396.628 125.891 396.628C126.022 396.628 126.141 396.624 126.249 396.618V398.115C121.088 399.026 113.533 400.899 105.716 404.708C102.471 403.7 99.4983 403 96.9942 402.516V400.921C97.1043 400.928 97.2251 400.932 97.3599 400.932C98.1828 400.932 99.4022 400.776 100.209 399.969C101.499 398.679 101.127 396.339 101.111 396.239C101.072 396.002 100.886 395.817 100.649 395.777C100.58 395.766 99.3994 395.581 98.2564 395.92C98.5439 395.442 98.7585 394.883 98.7585 394.275C98.7585 392.451 96.8403 391.059 96.7589 391.001C96.5634 390.862 96.3011 390.862 96.1057 391.001C96.0242 391.059 94.106 392.451 94.106 394.275C94.106 394.882 94.32 395.439 94.6059 395.917C93.4668 395.581 92.294 395.766 92.2249 395.777C91.9879 395.817 91.8026 396.002 91.7632 396.239C91.7469 396.338 91.3745 398.679 92.6642 399.969C93.4719 400.776 94.6902 400.932 95.5136 400.932C95.6445 400.932 95.763 400.928 95.8709 400.922V402.307C91.829 401.586 89.262 401.459 89.1811 401.456C88.8818 401.439 88.6099 401.683 88.5964 401.993C88.5835 402.303 88.8239 402.565 89.134 402.578C89.389 402.589 114.817 403.865 132.572 421.619C132.682 421.729 132.826 421.784 132.969 421.784C133.113 421.784 133.257 421.729 133.366 421.619C133.586 421.399 133.586 421.044 133.366 420.825C130.941 418.4 128.375 416.279 125.75 414.42ZM130.422 392.541C130.456 393.214 130.375 394.289 129.793 394.871C129.212 395.452 128.141 395.531 127.466 395.5C127.436 394.896 127.476 393.786 128.092 393.17C128.674 392.588 129.749 392.506 130.422 392.541ZM126.81 387.88C127.311 388.332 128.014 389.149 128.014 389.972C128.014 390.795 127.311 391.612 126.81 392.065C126.31 391.612 125.607 390.795 125.607 389.972C125.608 389.149 126.31 388.332 126.81 387.88ZM126.167 395.5C125.49 395.535 124.418 395.453 123.837 394.871C123.255 394.29 123.174 393.218 123.208 392.544C123.813 392.518 124.922 392.555 125.538 393.17C126.12 393.752 126.2 394.827 126.167 395.5ZM100.041 396.844C100.071 397.448 100.031 398.558 99.4151 399.174C98.8338 399.754 97.7604 399.834 97.088 399.803C97.0577 399.198 97.0982 398.088 97.7138 397.473C98.2951 396.892 99.3668 396.812 100.041 396.844ZM96.4303 392.184C96.8791 392.59 97.6357 393.404 97.6357 394.275C97.6357 395.097 96.9353 395.912 96.4348 396.366C95.986 395.959 95.2294 395.146 95.2294 394.275C95.2294 393.453 95.9298 392.638 96.4303 392.184ZM95.7889 399.803C95.1148 399.838 94.0409 399.756 93.459 399.175C92.8771 398.593 92.7962 397.518 92.8299 396.845C93.5039 396.807 94.5779 396.891 95.1598 397.473C95.7417 398.055 95.8226 399.13 95.7889 399.803Z" fill="black"/>
<path d="M124.61 421.784C124.773 421.784 124.935 421.713 125.046 421.577C125.241 421.337 125.205 420.983 124.964 420.787C112.046 410.277 97.0336 406.905 89.2345 405.829C88.9284 405.786 88.6436 406.001 88.6015 406.309C88.5594 406.616 88.7739 406.9 89.0812 406.942C96.764 408.002 111.55 411.322 124.256 421.658C124.359 421.743 124.485 421.784 124.61 421.784Z" fill="black"/>
<path d="M89.2643 410.458C88.9598 410.399 88.665 410.598 88.606 410.902C88.547 411.207 88.7464 411.501 89.0508 411.56C95.6411 412.838 105.471 415.634 114.872 421.694C114.966 421.754 115.071 421.784 115.176 421.784C115.36 421.784 115.541 421.693 115.648 421.526C115.816 421.266 115.741 420.918 115.481 420.75C105.928 414.592 95.9518 411.754 89.2643 410.458Z" fill="black"/>
<path d="M104.229 421.827C104.438 421.827 104.638 421.711 104.735 421.512C104.87 421.233 104.755 420.897 104.475 420.761C99.7505 418.462 94.6419 416.626 89.2918 415.302C88.9902 415.229 88.6863 415.411 88.6116 415.712C88.5369 416.013 88.7206 416.318 89.0216 416.393C94.2953 417.697 99.3292 419.507 103.983 421.771C104.064 421.81 104.147 421.827 104.229 421.827Z" fill="black"/>
<path d="M143.867 370.291H142.519V428.709H143.867V370.291Z" fill="black"/>
<path d="M156.443 399.044C155.992 399.044 155.658 399.036 155.441 399.019L154.364 402.65C153.963 402.75 153.404 402.8 152.686 402.8C151.885 402.8 151.234 402.709 150.733 402.525L150.608 402.325L156.117 385.521C156.768 385.421 157.528 385.371 158.396 385.371C159.381 385.371 160.166 385.429 160.75 385.546L166.159 402.375C165.575 402.692 164.915 402.851 164.181 402.851C163.313 402.851 162.703 402.7 162.353 402.4C162.002 402.099 161.702 401.523 161.451 400.672L160.975 399.019C160.758 399.036 160.433 399.044 159.999 399.044H156.443ZM156.367 395.889L157.369 395.864H159.197C159.281 395.864 159.427 395.868 159.636 395.876C159.844 395.884 159.999 395.889 160.099 395.889L159.673 394.336C159.272 392.934 158.813 391.214 158.296 389.177H158.145C158.012 389.895 157.611 391.489 156.943 393.96L156.367 395.889ZM174.874 392.909L178.806 392.884C180.575 392.884 181.46 393.718 181.46 395.388V401.974C179.307 402.659 177.044 403.001 174.674 403.001C173.472 403.001 172.407 402.8 171.481 402.4C170.554 401.999 169.778 401.423 169.152 400.672C168.526 399.921 168.054 398.998 167.737 397.905C167.42 396.811 167.261 395.571 167.261 394.186C167.261 392.666 167.482 391.343 167.925 390.216C168.367 389.09 168.96 388.15 169.703 387.399C170.446 386.648 171.301 386.084 172.27 385.709C173.238 385.333 174.248 385.145 175.3 385.145C177.47 385.145 179.507 385.746 181.41 386.948C181.393 387.215 181.331 387.487 181.222 387.762C181.114 388.038 180.98 388.305 180.822 388.564C180.663 388.822 180.479 389.056 180.271 389.265C180.062 389.474 179.849 389.653 179.632 389.803C178.246 388.902 176.844 388.451 175.425 388.451C172.704 388.451 171.343 390.354 171.343 394.161C171.343 397.95 172.737 399.845 175.525 399.845C175.909 399.845 176.281 399.829 176.64 399.795C176.998 399.762 177.353 399.712 177.704 399.645V397.967C177.704 397.583 177.708 397.249 177.716 396.965C177.725 396.682 177.737 396.44 177.754 396.239H176.502C175.784 396.239 175.287 396.101 175.012 395.826C174.736 395.551 174.599 395.121 174.599 394.536C174.599 394.035 174.69 393.493 174.874 392.909ZM196.912 390.805C196.912 391.356 196.828 391.878 196.661 392.37C196.494 392.863 196.273 393.305 195.998 393.697C195.722 394.09 195.397 394.432 195.021 394.724C194.645 395.016 194.257 395.238 193.856 395.388C194.725 395.705 195.367 396.473 195.785 397.692L196.536 399.82C196.82 400.655 197.237 401.273 197.788 401.674C197.538 402.007 197.162 402.287 196.661 402.512C196.16 402.738 195.609 402.851 195.008 402.851C194.407 402.851 193.94 402.679 193.606 402.337C193.272 401.995 192.963 401.398 192.679 400.547L191.778 397.917C191.594 397.416 191.348 397.032 191.039 396.765C190.73 396.498 190.267 396.364 189.649 396.364H188.622V402.625C188.088 402.725 187.42 402.775 186.619 402.775C185.818 402.775 185.158 402.725 184.641 402.625V385.646L184.816 385.471C186.268 385.437 187.491 385.412 188.485 385.396C189.478 385.379 190.259 385.371 190.826 385.371C191.744 385.371 192.579 385.483 193.331 385.709C194.082 385.934 194.72 386.272 195.246 386.723C195.772 387.174 196.181 387.741 196.473 388.426C196.766 389.11 196.912 389.903 196.912 390.805ZM188.622 388.376V393.284C189.374 393.284 190.017 393.272 190.551 393.247C191.085 393.222 191.515 393.121 191.84 392.946C192.166 392.771 192.412 392.525 192.579 392.207C192.746 391.89 192.83 391.431 192.83 390.83C192.83 389.211 192.045 388.401 190.476 388.401H189.436C189.436 388.401 189.165 388.393 188.622 388.376ZM200.092 402.625V385.521C200.61 385.421 201.277 385.371 202.095 385.371C202.914 385.371 203.59 385.421 204.124 385.521V402.625C203.59 402.725 202.914 402.775 202.095 402.775C201.277 402.775 200.61 402.725 200.092 402.625ZM216.921 392.333V392.032C216.921 389.561 216.003 388.326 214.166 388.326C213.114 388.326 212.355 388.806 211.887 389.766C211.42 390.726 211.186 392.141 211.186 394.01C211.186 395.864 211.478 397.241 212.062 398.142C212.647 399.044 213.498 399.495 214.617 399.495C215.201 399.495 215.848 399.357 216.558 399.082C217.267 398.806 218.039 398.368 218.874 397.767C219.292 398.051 219.68 398.439 220.039 398.931C220.398 399.424 220.619 399.895 220.702 400.346C220.318 400.714 219.872 401.06 219.362 401.386C218.853 401.711 218.302 401.991 217.71 402.224C217.117 402.458 216.499 402.646 215.856 402.788C215.214 402.93 214.567 403.001 213.916 403.001C212.63 403.001 211.545 402.755 210.66 402.262C209.775 401.77 209.062 401.114 208.519 400.296C207.976 399.478 207.584 398.535 207.342 397.466C207.1 396.398 206.979 395.288 206.979 394.136C206.979 392.633 207.167 391.318 207.542 390.191C207.918 389.064 208.427 388.125 209.07 387.374C209.713 386.623 210.468 386.059 211.336 385.684C212.204 385.308 213.131 385.12 214.116 385.12C215.118 385.12 216.028 385.254 216.846 385.521C217.664 385.788 218.361 386.155 218.937 386.623C219.513 387.09 219.955 387.641 220.264 388.276C220.573 388.91 220.727 389.595 220.727 390.329C220.727 391.815 219.968 392.558 218.448 392.558C217.998 392.558 217.488 392.483 216.921 392.333ZM227.389 399.044C226.938 399.044 226.604 399.036 226.387 399.019L225.31 402.65C224.909 402.75 224.35 402.8 223.632 402.8C222.831 402.8 222.18 402.709 221.679 402.525L221.554 402.325L227.063 385.521C227.714 385.421 228.474 385.371 229.342 385.371C230.327 385.371 231.112 385.429 231.696 385.546L237.105 402.375C236.521 402.692 235.861 402.851 235.127 402.851C234.259 402.851 233.649 402.7 233.299 402.4C232.948 402.099 232.648 401.523 232.397 400.672L231.921 399.019C231.704 399.036 231.379 399.044 230.945 399.044H227.389ZM227.314 395.889L228.315 395.864H230.143C230.227 395.864 230.373 395.868 230.582 395.876C230.79 395.884 230.945 395.889 231.045 395.889L230.619 394.336C230.218 392.934 229.759 391.214 229.242 389.177H229.092C228.958 389.895 228.557 391.489 227.89 393.96L227.314 395.889ZM245.545 399.244H249.877C249.877 399.912 249.835 400.484 249.752 400.96C249.668 401.436 249.401 401.845 248.95 402.187C248.5 402.529 247.907 402.7 247.172 402.7H241.513C240.795 402.7 240.227 402.492 239.81 402.074C239.392 401.657 239.184 401.089 239.184 400.371V385.521L239.359 385.346H240.837C242.406 385.346 243.191 386.197 243.191 387.9V399.345C243.925 399.278 244.71 399.244 245.545 399.244ZM258.617 399.244H262.949C262.949 399.912 262.908 400.484 262.824 400.96C262.741 401.436 262.474 401.845 262.023 402.187C261.572 402.529 260.979 402.7 260.245 402.7H254.585C253.867 402.7 253.3 402.492 252.882 402.074C252.465 401.657 252.256 401.089 252.256 400.371V385.521L252.431 385.346H253.909C255.478 385.346 256.263 386.197 256.263 387.9V399.345C256.998 399.278 257.782 399.244 258.617 399.244Z" fill="black"/>
<path d="M155.51 409.626H154.701C154.656 408.639 153.838 408.327 153.117 408.327C152.574 408.327 151.658 408.478 151.658 409.448C151.658 409.991 152.04 410.169 152.414 410.258L154.238 410.676C155.066 410.872 155.688 411.37 155.688 412.385C155.688 413.897 154.283 414.316 153.188 414.316C152.005 414.316 151.542 413.96 151.257 413.702C150.714 413.212 150.608 412.678 150.608 412.082H151.417C151.417 413.239 152.361 413.577 153.179 413.577C153.802 413.577 154.852 413.417 154.852 412.5C154.852 411.833 154.541 411.619 153.491 411.37L152.183 411.068C151.764 410.97 150.821 410.676 150.821 409.564C150.821 408.567 151.471 407.589 153.019 407.589C155.252 407.589 155.475 408.923 155.51 409.626ZM159.217 408.496V410.712H160.935C161.709 410.712 162.234 410.427 162.234 409.564C162.234 408.754 161.682 408.496 160.97 408.496H159.217ZM159.217 411.45V414.147H158.354V407.758H161.228C162.412 407.758 163.124 408.523 163.124 409.555C163.124 410.445 162.617 411.45 161.228 411.45H159.217ZM170.488 413.381V414.147H165.772V407.758H170.426V408.523H166.635V410.481H170.132V411.246H166.635V413.381H170.488ZM176.669 412.287H174.106L173.439 414.147H172.549L174.951 407.758H175.93L178.244 414.147H177.3L176.669 412.287ZM174.373 411.522H176.357L175.414 408.71H175.396L174.373 411.522ZM181.381 411.904V414.147H180.518V407.758H181.381V410.854L184.478 407.758H185.67L183.009 410.338L185.741 414.147H184.62L182.387 410.943L181.381 411.904ZM192.844 411.246V414.147H191.981V407.758H196.403V408.523H192.844V410.481H195.976V411.246H192.844ZM202.379 412.287H199.816L199.149 414.147H198.259L200.662 407.758H201.64L203.954 414.147H203.011L202.379 412.287ZM200.083 411.522H202.068L201.124 408.71H201.107L200.083 411.522ZM207.198 411.406V414.147H206.335V407.758H209.289C210.339 407.758 211.389 408.122 211.389 409.475C211.389 410.418 210.909 410.765 210.499 411.006C210.864 411.157 211.229 411.317 211.265 412.207L211.318 413.364C211.327 413.719 211.372 413.853 211.638 414.004V414.147H210.58C210.455 413.755 210.428 412.785 210.428 412.545C210.428 412.02 210.322 411.406 209.289 411.406H207.198ZM207.198 408.496V410.667H209.2C209.832 410.667 210.499 410.507 210.499 409.564C210.499 408.576 209.779 408.496 209.352 408.496H207.198ZM220.231 414.147H219.394V410.374C219.394 410.187 219.412 409.377 219.412 408.781H219.394L217.597 414.147H216.742L214.945 408.79H214.927C214.927 409.377 214.945 410.187 214.945 410.374V414.147H214.109V407.758H215.345L217.17 413.159H217.187L219.003 407.758H220.231V414.147ZM224.026 407.758V414.147H223.163V407.758H224.026ZM231.222 412.919V407.758H232.058V414.147H231.088L227.84 408.986H227.822V414.147H226.986V407.758H228.009L231.204 412.919H231.222ZM237.678 411.468V410.73H240.481V414.147H239.92L239.716 413.319C239.28 413.924 238.479 414.316 237.607 414.316C236.512 414.316 235.979 413.915 235.649 413.595C234.671 412.669 234.644 411.575 234.644 410.899C234.644 409.342 235.587 407.589 237.669 407.589C238.862 407.589 240.187 408.265 240.374 409.697H239.538C239.262 408.585 238.328 408.354 237.625 408.354C236.477 408.354 235.534 409.27 235.534 410.943C235.534 412.242 235.961 413.577 237.66 413.577C237.981 413.577 238.497 413.541 238.968 413.168C239.529 412.723 239.671 412.153 239.671 411.468H237.678Z" fill="black"/>
</g>
</g>
<defs>
<filter id="filter0_f_1_2" x="-189" y="126" width="551" height="548" filterUnits="userSpaceOnUse" color-interpolation-filters="sRGB">
<feFlood flood-opacity="0" result="BackgroundImageFix"/>
<feBlend mode="normal" in="SourceGraphic" in2="BackgroundImageFix" result="shape"/>
<feGaussianBlur stdDeviation="20" result="effect1_foregroundBlur_1_2"/>
</filter>
<filter id="filter1_f_1_2" x="46" y="38" width="471" height="481" filterUnits="userSpaceOnUse" color-interpolation-filters="sRGB">
<feFlood flood-opacity="0" result="BackgroundImageFix"/>
<feBlend mode="normal" in="SourceGraphic" in2="BackgroundImageFix" result="shape"/>
<feGaussianBlur stdDeviation="20" result="effect1_foregroundBlur_1_2"/>
</filter>
<filter id="filter2_f_1_2" x="46" y="299" width="551" height="548" filterUnits="userSpaceOnUse" color-interpolation-filters="sRGB">
<feFlood flood-opacity="0" result="BackgroundImageFix"/>
<feBlend mode="normal" in="SourceGraphic" in2="BackgroundImageFix" result="shape"/>
<feGaussianBlur stdDeviation="20" result="effect1_foregroundBlur_1_2"/>
</filter>
<filter id="filter3_f_1_2" x="35" y="-239" width="612" height="671" filterUnits="userSpaceOnUse" color-interpolation-filters="sRGB">
<feFlood flood-opacity="0" result="BackgroundImageFix"/>
<feBlend mode="normal" in="SourceGraphic" in2="BackgroundImageFix" result="shape"/>
<feGaussianBlur stdDeviation="105" result="effect1_foregroundBlur_1_2"/>
</filter>
<filter id="filter4_f_1_2" x="-328" y="279" width="932" height="843" filterUnits="userSpaceOnUse" color-interpolation-filters="sRGB">
<feFlood flood-opacity="0" result="BackgroundImageFix"/>
<feBlend mode="normal" in="SourceGraphic" in2="BackgroundImageFix" result="shape"/>
<feGaussianBlur stdDeviation="100" result="effect1_foregroundBlur_1_2"/>
</filter>
<filter id="filter5_f_1_2" x="-360" y="-421" width="819" height="843" filterUnits="userSpaceOnUse" color-interpolation-filters="sRGB">
<feFlood flood-opacity="0" result="BackgroundImageFix"/>
<feBlend mode="normal" in="SourceGraphic" in2="BackgroundImageFix" result="shape"/>
<feGaussianBlur stdDeviation="100" result="effect1_foregroundBlur_1_2"/>
</filter>
<filter id="filter6_f_1_2" x="-242" y="-170" width="1019" height="1043" filterUnits="userSpaceOnUse" color-interpolation-filters="sRGB">
<feFlood flood-opacity="0" result="BackgroundImageFix"/>
<feBlend mode="normal" in="SourceGraphic" in2="BackgroundImageFix" result="shape"/>
<feGaussianBlur stdDeviation="150" result="effect1_foregroundBlur_1_2"/>
</filter>
<clipPath id="clip0_1_2">
<rect width="360" height="800" fill="white"/>
</clipPath>
<clipPath id="clip1_1_2">
<rect width="182.443" height="58.4177" fill="white" transform="translate(88.5949 370.291)"/>
</clipPath>
</defs>
</svg>
